<svg width="16" height="16" viewBox="0 0 16 16" fill="none" xmlns="http://www.w3.org/2000/svg">
<path fill-rule="evenodd" clip-rule="evenodd" d="M2 4.88799H6.36L3.79073 8.68812L3.70584 8.81368L3.81081 8.923L4.85399 10.0094L4.37773 10.4873L2 8.1016V4.88799ZM5.54155 11.655L7.83819 13.9593H11.0411V9.71432L7.25423 12.2839L7.1233 12.3728L7.01371 12.2586L5.99613 11.1989L5.54155 11.655ZM6.26092 10.9332L7.1746 11.8848L11.0411 9.26114V7.18421C9.8013 7.13225 8.80566 6.13232 8.75539 4.88799H6.81266L4.18628 8.7726L5.11878 9.74375L8.22873 6.6234L8.4058 6.44574L8.58287 6.6234L9.39373 7.43698L9.56962 7.61346L9.39373 7.78994L6.26092 10.9332ZM5.46517 10.1045L8.4058 7.15403L8.86369 7.61346L5.91453 10.5725L5.46517 10.1045ZM5.20038 10.3702L5.64974 10.8382L5.28399 11.2051L4.82609 10.7457L5.20038 10.3702Z" fill="#9A9EA0"/>
<path fill-rule="evenodd" clip-rule="evenodd" d="M2 4.88799H6.36L3.79073 8.68812L3.70584 8.81368L3.81081 8.923L4.85399 10.0094L4.37773 10.4873L2 8.1016V4.88799ZM5.54155 11.655L7.83819 13.9593H11.0411V9.71432L7.25423 12.2839L7.1233 12.3728L7.01371 12.2586L5.99613 11.1989L5.54155 11.655ZM6.26092 10.9332L7.1746 11.8848L11.0411 9.26114V7.18421C9.8013 7.13225 8.80566 6.13232 8.75539 4.88799H6.81266L4.18628 8.7726L5.11878 9.74375L8.22873 6.6234L8.4058 6.44574L8.58287 6.6234L9.39373 7.43698L9.56962 7.61346L9.39373 7.78994L6.26092 10.9332ZM5.46517 10.1045L8.4058 7.15403L8.86369 7.61346L5.91453 10.5725L5.46517 10.1045ZM5.20038 10.3702L5.64974 10.8382L5.28399 11.2051L4.82609 10.7457L5.20038 10.3702Z" fill="black" fill-opacity="0.15"/>
<path fill-rule="evenodd" clip-rule="evenodd" d="M8.74861 2.0246L4.18628 8.7726L5.11878 9.74375L8.22871 6.62341L8.40579 6.44574L8.58286 6.62341L9.39372 7.43698L9.56961 7.61346L9.39372 7.78994L6.26091 10.9332L7.17461 11.8848L13.9754 7.27003V2.0246H8.74861ZM5.91453 10.5725L8.86368 7.61346L8.40579 7.15403L5.46516 10.1045L5.91453 10.5725ZM11.1396 6.75009C12.2192 6.75009 13.0943 5.87199 13.0943 4.7888C13.0943 3.70561 12.2192 2.82751 11.1396 2.82751C10.06 2.82751 9.18482 3.70561 9.18482 4.7888C9.18482 5.87199 10.06 6.75009 11.1396 6.75009Z" fill="#9A9EA0"/>
<path d="M9.21667 7.61346L8.40581 6.79989L4.47314 10.7457L5.284 11.5593L9.21667 7.61346Z" fill="#9A9EA0"/>
<path d="M2.89195 10.9491H2V14H5.00018V13.1051H2.89195V10.9491Z" fill="#9A9EA0"/>
<path d="M9.21667 7.61346L8.40581 6.79989L4.47314 10.7457L5.284 11.5593L9.21667 7.61346Z" fill="white" fill-opacity="0.2"/>
<ellipse cx="11.1627" cy="4.80663" rx="1.54063" ry="1.54579" fill="#00ACE9"/>
</svg>
