<svg width="16" height="16" viewBox="0 0 16 16" fill="none" xmlns="http://www.w3.org/2000/svg">
<path fill-rule="evenodd" clip-rule="evenodd" d="M1 4.5117H6.05272L3.08466 8.90167L2.99977 9.02723L3.10474 9.13655L4.33122 10.4139L3.76352 10.9835L1 8.2107V4.5117ZM5.04982 12.2741L7.72 14.9532H11.4067V10.0328L7.03194 13.0013L6.901 13.0902L6.79141 12.976L5.59355 11.7285L5.04982 12.2741ZM5.85834 11.4628L6.95231 12.6022L11.4067 9.5796V7.15475C9.97962 7.09493 8.8336 5.94397 8.77573 4.5117H6.50539L3.48021 8.98615L4.59601 10.1482L8.19627 6.53589L8.37335 6.35823L8.55042 6.53589L9.48375 7.47235L9.65964 7.64883L9.48375 7.82531L5.85834 11.4628ZM4.9424 10.5089L8.37335 7.06652L8.95372 7.64883L5.51195 11.1021L4.9424 10.5089ZM4.67761 10.7746L5.24717 11.3678L4.78001 11.8365L4.19964 11.2542L4.67761 10.7746Z" fill="#4E5254"/>
<path fill-rule="evenodd" clip-rule="evenodd" d="M1 4.5117H6.05272L3.08466 8.90167L2.99977 9.02723L3.10474 9.13655L4.33122 10.4139L3.76352 10.9835L1 8.2107V4.5117ZM5.04982 12.2741L7.72 14.9532H11.4067V10.0328L7.03194 13.0013L6.901 13.0902L6.79141 12.976L5.59355 11.7285L5.04982 12.2741ZM5.85834 11.4628L6.95231 12.6022L11.4067 9.5796V7.15475C9.97962 7.09493 8.8336 5.94397 8.77573 4.5117H6.50539L3.48021 8.98615L4.59601 10.1482L8.19627 6.53589L8.37335 6.35823L8.55042 6.53589L9.48375 7.47235L9.65964 7.64883L9.48375 7.82531L5.85834 11.4628ZM4.9424 10.5089L8.37335 7.06652L8.95372 7.64883L5.51195 11.1021L4.9424 10.5089ZM4.67761 10.7746L5.24717 11.3678L4.78001 11.8365L4.19964 11.2542L4.67761 10.7746Z" fill="black" fill-opacity="0.15"/>
<path fill-rule="evenodd" clip-rule="evenodd" d="M8.7529 1.1875L3.48022 8.98615L4.59602 10.1482L8.19627 6.53589L8.37335 6.35823L8.55042 6.53589L9.48375 7.47235L9.65964 7.64883L9.48375 7.82531L5.85835 11.4628L6.95232 12.6022L14.8125 7.26853V1.1875H8.7529ZM5.51196 11.1021L8.95372 7.64883L8.37335 7.06652L4.94241 10.5089L5.51196 11.1021ZM11.52 6.65505C12.7627 6.65505 13.77 5.64432 13.77 4.39753C13.77 3.15073 12.7627 2.14 11.52 2.14C10.2774 2.14 9.27003 3.15073 9.27003 4.39753C9.27003 5.64432 10.2774 6.65505 11.52 6.65505Z" fill="#4E5254"/>
<path d="M9.30668 7.64883L8.37335 6.71237L3.84668 11.2542L4.78001 12.1906L9.30668 7.64883Z" fill="#4E5254"/>
<path d="M2.02667 11.4883H1V15H4.45333V13.9699H2.02667V11.4883Z" fill="#4E5254"/>
<path d="M9.30668 7.64883L8.37335 6.71237L3.84668 11.2542L4.78001 12.1906L9.30668 7.64883Z" fill="white" fill-opacity="0.2"/>
<ellipse cx="11.5468" cy="4.41806" rx="1.77333" ry="1.77926" fill="#0082BC"/>
</svg>
