<svg width="16" height="16" viewBox="0 0 16 16" fill="none" xmlns="http://www.w3.org/2000/svg">
<path d="M11.8409 6.77273H9.53764C9.50497 6.39157 9.36612 6.08393 9.12109 5.84979C8.87879 5.61565 8.53847 5.49858 8.10014 5.49858C7.52841 5.49858 7.09144 5.70413 6.78924 6.11524C6.48704 6.52362 6.33594 7.09127 6.33594 7.81818C6.33594 8.58594 6.4884 9.16448 6.79332 9.5538C7.10097 9.94312 7.53113 10.1378 8.08381 10.1378C8.50036 10.1378 8.83251 10.0343 9.08026 9.82742C9.32801 9.61778 9.48047 9.33464 9.53764 8.97798L11.8409 8.99432C11.8137 9.34825 11.7143 9.70899 11.5428 10.0765C11.3713 10.4413 11.1276 10.7789 10.8118 11.0893C10.4987 11.397 10.1107 11.6447 9.6479 11.8326C9.18507 12.0204 8.64737 12.1143 8.0348 12.1143C7.26705 12.1143 6.57824 11.9496 5.96839 11.6202C5.36127 11.2908 4.88074 10.8062 4.52681 10.1664C4.1756 9.52658 4 8.74385 4 7.81818C4 6.88707 4.17969 6.10298 4.53906 5.46591C4.89844 4.82611 5.38305 4.34286 5.9929 4.01616C6.60275 3.68673 7.28338 3.52202 8.0348 3.52202C8.73722 3.52202 9.3634 3.64862 9.91335 3.90181C10.466 4.15501 10.9098 4.52391 11.2447 5.00852C11.5823 5.49314 11.781 6.0812 11.8409 6.77273Z" fill="#D580C7"/>
</svg>
