<svg width="16" height="16" viewBox="0 0 16 16" fill="none" xmlns="http://www.w3.org/2000/svg">
<path d="M7.9788 2C5.17272 2 2.82291 3.91635 2.16131 6.51711C2.16131 6.53992 2.1499 6.55133 2.1499 6.57414C2.1499 6.73384 2.27538 6.85932 2.43507 6.85932H4.85332C4.96739 6.85932 5.07005 6.79087 5.11568 6.68821C5.61758 5.60456 6.70123 4.85171 7.9788 4.85171C9.71264 4.85171 11.1271 6.26616 11.1271 8C11.1271 9.73384 9.71264 11.1483 7.9788 11.1483C6.71264 11.1483 5.61758 10.3954 5.11568 9.31179C5.07005 9.20913 4.96739 9.14068 4.85332 9.14068H2.43507C2.27538 9.14068 2.1499 9.26616 2.1499 9.42586C2.1499 9.44867 2.1499 9.46008 2.16131 9.48289C2.82291 12.0837 5.17272 14 7.9788 14C11.2982 14 13.9902 11.308 13.9902 7.98859C13.9902 4.68061 11.2982 2 7.9788 2Z" fill="#4E5254"/>
<path d="M7.97883 6.57414C7.19176 6.57414 6.55298 7.21293 6.55298 8C6.55298 8.78707 7.19176 9.43726 7.97883 9.42585C8.76591 9.42585 9.40469 8.78707 9.40469 8C9.40469 7.21293 8.76591 6.57414 7.97883 6.57414Z" fill="#A76329"/>
</svg>
