<svg width="16" height="16" viewBox="0 0 16 16" fill="none" xmlns="http://www.w3.org/2000/svg">
<path fill-rule="evenodd" clip-rule="evenodd" d="M10 5V3.70711L11.2929 5H10ZM9.52634 2.02763C9.40867 1.99938 9.2891 1.9997 9.19415 1.99995L9.16863 2H5.1H5.08073C4.81715 1.99999 4.58977 1.99998 4.40249 2.01528C4.20481 2.03144 4.0082 2.06709 3.81901 2.16349C3.53677 2.3073 3.3073 2.53677 3.16349 2.81901C3.06709 3.0082 3.03144 3.20481 3.01528 3.40249C2.99998 3.58977 2.99999 3.81715 3 4.08073V4.1V11.9V11.9193C2.99999 12.1828 2.99998 12.4102 3.01528 12.5975C3.03144 12.7952 3.06709 12.9918 3.16349 13.181C3.3073 13.4632 3.53677 13.6927 3.81901 13.8365C4.0082 13.9329 4.20481 13.9686 4.40249 13.9847C4.58977 14 4.81715 14 5.08072 14H5.1H7.25777C7.05127 13.6915 6.8819 13.356 6.75606 13H5.1C4.81172 13 4.62559 12.9996 4.48392 12.988C4.34809 12.9769 4.29773 12.9581 4.273 12.9455C4.17892 12.8976 4.10243 12.8211 4.0545 12.727C4.0419 12.7023 4.02306 12.6519 4.01196 12.5161C4.00039 12.3744 4 12.1883 4 11.9V4.1C4 3.81172 4.00039 3.62559 4.01196 3.48392C4.02306 3.34809 4.0419 3.29773 4.0545 3.273C4.10243 3.17892 4.17892 3.10243 4.273 3.0545C4.29773 3.0419 4.34809 3.02306 4.48392 3.01196C4.62559 3.00039 4.81172 3 5.1 3H9V5.5C9 5.77614 9.22386 6 9.5 6H12V7.11151C12.3506 7.19108 12.6857 7.31159 13 7.46776V5.83137L13 5.80585C13.0003 5.7109 13.0006 5.59133 12.9724 5.47366C12.9479 5.37163 12.9075 5.27408 12.8526 5.18461C12.7894 5.08143 12.7046 4.99711 12.6373 4.93015L12.6373 4.93014L12.6192 4.91213L10.0879 2.38076L10.0699 2.36268C10.0029 2.29536 9.91857 2.21059 9.81539 2.14736C9.72592 2.09253 9.62837 2.05213 9.52634 2.02763Z" fill="#4E5254"/>
<path fill-rule="evenodd" clip-rule="evenodd" d="M13 8.737V13.947H13V8.737L13.12 8.617L13.83 9.327L13.16 9.997C13.3524 10.2843 13.485 10.6074 13.55 10.947H14H14H14.5V11.947H14H14H13.55C13.485 12.2866 13.3524 12.6097 13.16 12.897L13.83 13.567L13.12 14.277L12.79 13.947H12.79L12.45 13.607C12.225 13.7561 11.9789 13.8707 11.72 13.947H11.72C11.6479 13.9684 11.5744 13.9851 11.5 13.997V14.947H10.5V13.997C10.4257 13.9851 10.3522 13.9684 10.28 13.947H10.28C10.0211 13.8707 9.77502 13.7561 9.55 13.607L9.21 13.947H9.21004L8.88004 14.277L8.55005 13.947H8.55L8.17 13.567L8.84 12.897C8.64765 12.6097 8.51502 12.2866 8.45 11.947H7.5V10.947H8.45C8.51502 10.6074 8.64765 10.2843 8.84 9.997L8.17 9.327L8.88 8.617L9.55 9.28699C9.83734 9.09465 10.1604 8.96202 10.5 8.897V7.947H11.5V8.897C11.8396 8.96202 12.1627 9.09465 12.45 9.28699L13 8.737ZM12.9 11.447C12.9 11.0712 12.7886 10.7039 12.5798 10.3914C12.371 10.079 12.0743 9.83543 11.7271 9.69163C11.3799 9.54782 10.9979 9.51019 10.6293 9.5835C10.2608 9.65682 9.92221 9.83777 9.65649 10.1035C9.39077 10.3692 9.20982 10.7078 9.13651 11.0763C9.06319 11.4449 9.10082 11.8269 9.24463 12.1741C9.38844 12.5213 9.63197 12.818 9.94442 13.0268C10.2569 13.2356 10.6242 13.347 11 13.347C11.2495 13.347 11.4966 13.2979 11.7271 13.2024C11.9576 13.1069 12.1671 12.9669 12.3435 12.7905C12.5199 12.6141 12.6599 12.4046 12.7554 12.1741C12.8509 11.9436 12.9 11.6965 12.9 11.447ZM11.0001 12.597C11.6352 12.597 12.1501 12.0821 12.1501 11.447C12.1501 10.8119 11.6352 10.297 11.0001 10.297C10.365 10.297 9.8501 10.8119 9.8501 11.447C9.8501 12.0821 10.365 12.597 11.0001 12.597Z" fill="#7867BA"/>
</svg>
