<svg width="16" height="16" viewBox="0 0 16 16" fill="none" xmlns="http://www.w3.org/2000/svg">
<path fill-rule="evenodd" clip-rule="evenodd" d="M10 5V3.70711L11.2929 5H10ZM9.52634 2.02763C9.40867 1.99938 9.2891 1.9997 9.19415 1.99995L9.16863 2H5.1H5.08073C4.81715 1.99999 4.58977 1.99998 4.40249 2.01528C4.20481 2.03144 4.0082 2.06709 3.81901 2.16349C3.53677 2.3073 3.3073 2.53677 3.16349 2.81901C3.06709 3.0082 3.03144 3.20481 3.01528 3.40249C2.99998 3.58977 2.99999 3.81715 3 4.08073V4.1V11.9V11.9193C2.99999 12.1828 2.99998 12.4102 3.01528 12.5975C3.03144 12.7952 3.06709 12.9918 3.16349 13.181C3.3073 13.4632 3.53677 13.6927 3.81901 13.8365C4.0082 13.9329 4.20481 13.9686 4.40249 13.9847C4.58977 14 4.81715 14 5.08072 14H5.1H7.25777C7.05127 13.6915 6.8819 13.356 6.75606 13H5.1C4.81172 13 4.62559 12.9996 4.48392 12.988C4.34809 12.9769 4.29773 12.9581 4.273 12.9455C4.17892 12.8976 4.10243 12.8211 4.0545 12.727C4.0419 12.7023 4.02306 12.6519 4.01196 12.5161C4.00039 12.3744 4 12.1883 4 11.9V4.1C4 3.81172 4.00039 3.62559 4.01196 3.48392C4.02306 3.34809 4.0419 3.29773 4.0545 3.273C4.10243 3.17892 4.17892 3.10243 4.273 3.0545C4.29773 3.0419 4.34809 3.02306 4.48392 3.01196C4.62559 3.00039 4.81172 3 5.1 3H9V5.5C9 5.77614 9.22386 6 9.5 6H12V7.11151C12.3506 7.19108 12.6857 7.31159 13 7.46776V5.83137L13 5.80585C13.0003 5.7109 13.0006 5.59133 12.9724 5.47366C12.9479 5.37163 12.9075 5.27408 12.8526 5.18461C12.7894 5.08143 12.7046 4.99711 12.6373 4.93015L12.6373 4.93014L12.6192 4.91213L10.0879 2.38076L10.0699 2.36268C10.0029 2.29536 9.91857 2.21059 9.81539 2.14736C9.72592 2.09253 9.62837 2.05213 9.52634 2.02763Z" fill="#4E5254"/>
<path fill-rule="evenodd" clip-rule="evenodd" d="M13 8.736V13.946H13V8.736L13.12 8.616L13.83 9.326L13.16 9.996C13.3524 10.2833 13.485 10.6064 13.55 10.946H14H14H14.5V11.946H14H14H13.55C13.485 12.2856 13.3524 12.6087 13.16 12.896L13.83 13.566L13.12 14.276L12.79 13.946H12.79L12.45 13.606C12.225 13.7551 11.9789 13.8697 11.72 13.946H11.72C11.6479 13.9674 11.5744 13.9841 11.5 13.996V14.946H10.5V13.996C10.4257 13.9841 10.3522 13.9674 10.28 13.946H10.28C10.0211 13.8697 9.77502 13.7551 9.55 13.606L9.21001 13.946H9.21005L8.88005 14.276L8.55005 13.946H8.55L8.17 13.566L8.84 12.896C8.64765 12.6087 8.51502 12.2856 8.45 11.946H7.5V10.946H8.45C8.51502 10.6064 8.64765 10.2833 8.84 9.996L8.17 9.326L8.88 8.616L9.55 9.286C9.83734 9.09366 10.1604 8.96102 10.5 8.896V7.946H11.5V8.896C11.8396 8.96102 12.1627 9.09366 12.45 9.286L13 8.736ZM12.9 11.446C12.9 11.0702 12.7886 10.7029 12.5798 10.3904C12.371 10.078 12.0743 9.83443 11.7271 9.69063C11.3799 9.54682 10.9979 9.50919 10.6293 9.5825C10.2608 9.65582 9.92221 9.83677 9.65649 10.1025C9.39077 10.3682 9.20982 10.7068 9.13651 11.0753C9.06319 11.4439 9.10082 11.8259 9.24463 12.1731C9.38844 12.5203 9.63196 12.817 9.94441 13.0258C10.2569 13.2346 10.6242 13.346 11 13.346C11.5039 13.346 11.9872 13.1458 12.3435 12.7895C12.6998 12.4332 12.9 11.9499 12.9 11.446ZM11.0001 12.596C11.6352 12.596 12.1501 12.0811 12.1501 11.446C12.1501 10.8109 11.6352 10.296 11.0001 10.296C10.365 10.296 9.8501 10.8109 9.8501 11.446C9.8501 12.0811 10.365 12.596 11.0001 12.596Z" fill="#0082BC"/>
</svg>
