<svg width="16" height="16" viewBox="0 0 16 16" fill="none" xmlns="http://www.w3.org/2000/svg">
<path fill-rule="evenodd" clip-rule="evenodd" d="M10 5V3.70711L11.2929 5H10ZM9.52634 2.02763C9.40867 1.99938 9.2891 1.9997 9.19415 1.99995L9.16863 2H5.1H5.08073C4.81715 1.99999 4.58977 1.99998 4.40249 2.01528C4.20481 2.03144 4.0082 2.06709 3.81901 2.16349C3.53677 2.3073 3.3073 2.53677 3.16349 2.81901C3.06709 3.0082 3.03144 3.20481 3.01528 3.40249C2.99998 3.58977 2.99999 3.81715 3 4.08073V4.1V11.9V11.9193C2.99999 12.1828 2.99998 12.4102 3.01528 12.5975C3.03144 12.7952 3.06709 12.9918 3.16349 13.181C3.3073 13.4632 3.53677 13.6927 3.81901 13.8365C4.0082 13.9329 4.20481 13.9686 4.40249 13.9847C4.58977 14 4.81715 14 5.08072 14H5.1H8.1547L7.57735 13H5.1C4.81172 13 4.62559 12.9996 4.48392 12.988C4.34809 12.9769 4.29773 12.9581 4.273 12.9455C4.17892 12.8976 4.10243 12.8211 4.0545 12.727C4.0419 12.7023 4.02306 12.6519 4.01196 12.5161C4.00039 12.3744 4 12.1883 4 11.9V4.1C4 3.81172 4.00039 3.62559 4.01196 3.48392C4.02306 3.34809 4.0419 3.29773 4.0545 3.273C4.10243 3.17892 4.17892 3.10243 4.273 3.0545C4.29773 3.0419 4.34809 3.02306 4.48392 3.01196C4.62559 3.00039 4.81172 3 5.1 3H9V5.5C9 5.77614 9.22386 6 9.5 6H12V8.10289H13V5.83137L13 5.80585C13.0003 5.7109 13.0006 5.59133 12.9724 5.47366C12.9479 5.37163 12.9075 5.27408 12.8526 5.18461C12.7894 5.08143 12.7046 4.99711 12.6373 4.93015L12.6373 4.93014L12.6192 4.91213L10.0879 2.38076L10.0699 2.36268C10.0029 2.29536 9.91857 2.21059 9.81539 2.14736C9.72592 2.09253 9.62837 2.05213 9.52634 2.02763Z" fill="#4E5254"/>
<path d="M8.78868 12.5C8.61004 12.1906 8.61004 11.8094 8.78868 11.5L9.71132 9.90189C9.88996 9.59249 10.2201 9.40189 10.5774 9.40189L12.4226 9.40189C12.7799 9.40189 13.11 9.59249 13.2887 9.90189L14.2113 11.5C14.39 11.8094 14.39 12.1906 14.2113 12.5L13.2887 14.098C13.11 14.4074 12.7799 14.598 12.4226 14.598L10.5774 14.598C10.2201 14.598 9.88996 14.4074 9.71132 14.098L8.78868 12.5Z" stroke="#0082BC"/>
</svg>
