<svg width="16" height="16" viewBox="0 0 16 16" fill="none" xmlns="http://www.w3.org/2000/svg">
<path fill-rule="evenodd" clip-rule="evenodd" d="M4.5 2C3.67157 2 3 2.67157 3 3.5V12.5C3 13.3284 3.67157 14 4.5 14H8.1547L7.57735 13H4.5C4.22386 13 4 12.7761 4 12.5V3.5C4 3.22386 4.22386 3 4.5 3H9V5.5V6H9.5H12V8.10289H13V5.70711C13 5.44189 12.8946 5.18754 12.7071 5L10 2.29289C9.81246 2.10536 9.55811 2 9.29289 2H4.5ZM10 5V3.70711L11.2929 5H10Z" fill="#5D6261"/>
<path d="M8.78868 12.5C8.61004 12.1906 8.61004 11.8094 8.78868 11.5L9.71132 9.90189C9.88996 9.59249 10.2201 9.40189 10.5774 9.40189L12.4226 9.40189C12.7799 9.40189 13.11 9.59249 13.2887 9.90189L14.2113 11.5C14.39 11.8094 14.39 12.1906 14.2113 12.5L13.2887 14.098C13.11 14.4074 12.7799 14.598 12.4226 14.598L10.5774 14.598C10.2201 14.598 9.88996 14.4074 9.71132 14.098L8.78868 12.5Z" stroke="#0084BE"/>
</svg>
