<svg width="16" height="16" viewBox="0 0 16 16" fill="none" xmlns="http://www.w3.org/2000/svg">
<path fill-rule="evenodd" clip-rule="evenodd" d="M4.5 2C3.67157 2 3 2.67157 3 3.5V12.5C3 13.3284 3.67157 14 4.5 14H7.25777C7.05127 13.6915 6.8819 13.356 6.75606 13H4.5C4.22386 13 4 12.7761 4 12.5V3.5C4 3.22386 4.22386 3 4.5 3H9V5.5V6H9.5H12V7.11151C12.3506 7.19108 12.6857 7.31159 13 7.46776V5.70711C13 5.44189 12.8946 5.18754 12.7071 5L10 2.29289C9.81246 2.10536 9.55811 2 9.29289 2H4.5ZM10 5V3.70711L11.2929 5H10Z" fill="#4E5254"/>
<path fill-rule="evenodd" clip-rule="evenodd" d="M13 8.736V13.946H13V8.736L13.12 8.616L13.83 9.326L13.16 9.996C13.3524 10.2833 13.485 10.6064 13.55 10.946H14H14H14.5V11.946H14H14H13.55C13.485 12.2856 13.3524 12.6087 13.16 12.896L13.83 13.566L13.12 14.276L12.79 13.946H12.79L12.45 13.606C12.225 13.7551 11.9789 13.8697 11.72 13.946H11.72C11.6479 13.9674 11.5744 13.9841 11.5 13.996V14.946H10.5V13.996C10.4257 13.9841 10.3522 13.9674 10.28 13.946H10.28C10.0211 13.8697 9.77502 13.7551 9.55 13.606L9.21001 13.946H9.21005L8.88005 14.276L8.55005 13.946H8.55L8.17 13.566L8.84 12.896C8.64765 12.6087 8.51502 12.2856 8.45 11.946H7.5V10.946H8.45C8.51502 10.6064 8.64765 10.2833 8.84 9.996L8.17 9.326L8.88 8.616L9.55 9.286C9.83734 9.09366 10.1604 8.96102 10.5 8.896V7.946H11.5V8.896C11.8396 8.96102 12.1627 9.09366 12.45 9.286L13 8.736ZM12.9 11.446C12.9 11.0702 12.7886 10.7029 12.5798 10.3904C12.371 10.078 12.0743 9.83443 11.7271 9.69063C11.3799 9.54682 10.9979 9.50919 10.6293 9.5825C10.2608 9.65582 9.92221 9.83677 9.65649 10.1025C9.39077 10.3682 9.20982 10.7068 9.13651 11.0753C9.06319 11.4439 9.10082 11.8259 9.24463 12.1731C9.38844 12.5203 9.63196 12.817 9.94441 13.0258C10.2569 13.2346 10.6242 13.346 11 13.346C11.5039 13.346 11.9872 13.1458 12.3435 12.7895C12.6998 12.4332 12.9 11.9499 12.9 11.446ZM11.0001 12.596C11.6352 12.596 12.1501 12.0811 12.1501 11.446C12.1501 10.8109 11.6352 10.296 11.0001 10.296C10.365 10.296 9.8501 10.8109 9.8501 11.446C9.8501 12.0811 10.365 12.596 11.0001 12.596Z" fill="#A76329"/>
</svg>
