<svg width="16" height="16" viewBox="0 0 16 16" fill="none" xmlns="http://www.w3.org/2000/svg">
<path fill-rule="evenodd" clip-rule="evenodd" d="M4.5 2C3.67157 2 3 2.67157 3 3.5V12.5C3 13.3284 3.67157 14 4.5 14H7.25777C7.05127 13.6915 6.8819 13.356 6.75606 13H4.5C4.22386 13 4 12.7761 4 12.5V3.5C4 3.22386 4.22386 3 4.5 3H9V5.5V6H9.5H12V7.11151C12.3507 7.19107 12.6857 7.31159 13 7.46776V5.70711C13 5.44189 12.8946 5.18754 12.7071 5L10 2.29289C9.81246 2.10536 9.55811 2 9.29289 2H4.5ZM10 5V3.70711L11.2929 5H10Z" fill="#999E9E"/>
<path fill-rule="evenodd" clip-rule="evenodd" d="M13 8.79V14H13V8.79L13.12 8.67L13.83 9.38L13.16 10.05C13.3524 10.3373 13.485 10.6604 13.55 11H14H14H14.5V12H14H14H13.55C13.485 12.3396 13.3524 12.6627 13.16 12.95L13.83 13.62L13.12 14.33L12.79 14H12.79L12.45 13.66C12.225 13.8091 11.9789 13.9237 11.72 14H11.72C11.6479 14.0214 11.5744 14.0381 11.5 14.05V15H10.5V14.05C10.4257 14.0381 10.3522 14.0214 10.28 14H10.28C10.0211 13.9237 9.77502 13.8091 9.55 13.66L9.21001 14H9.21005L8.88005 14.33L8.55005 14H8.55L8.17 13.62L8.84 12.95C8.64765 12.6627 8.51502 12.3396 8.45 12H7.5V11H8.45C8.51502 10.6604 8.64765 10.3373 8.84 10.05L8.17 9.38L8.88 8.67L9.55 9.34C9.83734 9.14765 10.1604 9.01502 10.5 8.95V8H11.5V8.95C11.8396 9.01502 12.1627 9.14765 12.45 9.34L13 8.79ZM12.9 11.5C12.9 11.1242 12.7886 10.7569 12.5798 10.4444C12.371 10.132 12.0743 9.88844 11.7271 9.74463C11.3799 9.60082 10.9979 9.56319 10.6293 9.63651C10.2608 9.70982 9.92221 9.89077 9.65649 10.1565C9.39077 10.4222 9.20982 10.7608 9.13651 11.1293C9.06319 11.4979 9.10082 11.8799 9.24463 12.2271C9.38844 12.5743 9.63196 12.871 9.94441 13.0798C10.2569 13.2886 10.6242 13.4 11 13.4C11.5039 13.4 11.9872 13.1998 12.3435 12.8435C12.6998 12.4872 12.9 12.0039 12.9 11.5ZM11.0001 12.65C11.6352 12.65 12.1501 12.1351 12.1501 11.5C12.1501 10.8649 11.6352 10.35 11.0001 10.35C10.365 10.35 9.8501 10.8649 9.8501 11.5C9.8501 12.1351 10.365 12.65 11.0001 12.65Z" fill="#00ACE9"/>
</svg>
