<svg width="16" height="16" viewBox="0 0 16 16" fill="none" xmlns="http://www.w3.org/2000/svg">
<path fill-rule="evenodd" clip-rule="evenodd" d="M4.5 2C3.67157 2 3 2.67157 3 3.5V12.5C3 13.3284 3.67157 14 4.5 14H7.25777C7.05127 13.6915 6.8819 13.356 6.75606 13H4.5C4.22386 13 4 12.7761 4 12.5V3.5C4 3.22386 4.22386 3 4.5 3H9V5.5V6H9.5H12V7.11151C12.3506 7.19108 12.6857 7.31159 13 7.46776V5.70711C13 5.44189 12.8946 5.18754 12.7071 5L10 2.29289C9.81246 2.10536 9.55811 2 9.29289 2H4.5ZM10 5V3.70711L11.2929 5H10Z" fill="#5B5F61"/>
<path fill-rule="evenodd" clip-rule="evenodd" d="M13 8.737V13.947H13V8.737L13.12 8.617L13.83 9.327L13.16 9.997C13.3524 10.2843 13.485 10.6074 13.55 10.947H14H14H14.5V11.947H14H14H13.55C13.485 12.2866 13.3524 12.6097 13.16 12.897L13.83 13.567L13.12 14.277L12.79 13.947H12.79L12.45 13.607C12.225 13.7561 11.9789 13.8707 11.72 13.947H11.72C11.6479 13.9684 11.5744 13.9851 11.5 13.997V14.947H10.5V13.997C10.4257 13.9851 10.3522 13.9684 10.28 13.947H10.28C10.0211 13.8707 9.77502 13.7561 9.55 13.607L9.21 13.947H9.21004L8.88004 14.277L8.55005 13.947H8.55L8.17 13.567L8.84 12.897C8.64765 12.6097 8.51502 12.2866 8.45 11.947H7.5V10.947H8.45C8.51502 10.6074 8.64765 10.2843 8.84 9.997L8.17 9.327L8.88 8.617L9.55 9.28699C9.83734 9.09465 10.1604 8.96202 10.5 8.897V7.947H11.5V8.897C11.8396 8.96202 12.1627 9.09465 12.45 9.28699L13 8.737ZM12.9 11.447C12.9 11.0712 12.7886 10.7039 12.5798 10.3914C12.371 10.079 12.0743 9.83543 11.7271 9.69163C11.3799 9.54782 10.9979 9.51019 10.6293 9.5835C10.2608 9.65682 9.92221 9.83777 9.65649 10.1035C9.39077 10.3692 9.20982 10.7078 9.13651 11.0763C9.06319 11.4449 9.10082 11.8269 9.24463 12.1741C9.38844 12.5213 9.63197 12.818 9.94442 13.0268C10.2569 13.2356 10.6242 13.347 11 13.347C11.2495 13.347 11.4966 13.2979 11.7271 13.2024C11.9576 13.1069 12.1671 12.9669 12.3435 12.7905C12.5199 12.6141 12.6599 12.4046 12.7554 12.1741C12.8509 11.9436 12.9 11.6965 12.9 11.447ZM11.0001 12.597C11.6352 12.597 12.1501 12.0821 12.1501 11.447C12.1501 10.8119 11.6352 10.297 11.0001 10.297C10.365 10.297 9.8501 10.8119 9.8501 11.447C9.8501 12.0821 10.365 12.597 11.0001 12.597Z" fill="#7A6ABC"/>
</svg>
