<svg width="16" height="16" viewBox="0 0 16 16" fill="none" xmlns="http://www.w3.org/2000/svg">
<path fill-rule="evenodd" clip-rule="evenodd" d="M5.5 2C5.77614 2 6 2.22386 6 2.5V5H8.5C8.77614 5 9 5.22386 9 5.5C9 5.77614 8.77614 6 8.5 6H6V8.5C6 8.77614 5.77614 9 5.5 9C5.22386 9 5 8.77614 5 8.5V6H2.5C2.22386 6 2 5.77614 2 5.5C2 5.22386 2.22386 5 2.5 5H5V2.5C5 2.22386 5.22386 2 5.5 2Z" fill="#A491E7"/>
<path fill-rule="evenodd" clip-rule="evenodd" d="M10.5 7C10.7761 7 11 7.22386 11 7.5V10H13.5C13.7761 10 14 10.2239 14 10.5C14 10.7761 13.7761 11 13.5 11H11V13.5C11 13.7761 10.7761 14 10.5 14C10.2239 14 10 13.7761 10 13.5V11H7.5C7.22386 11 7 10.7761 7 10.5C7 10.2239 7.22386 10 7.5 10H10V7.5C10 7.22386 10.2239 7 10.5 7Z" fill="#A491E7"/>
</svg>
