<svg width="16" height="16" viewBox="0 0 16 16" fill="none" xmlns="http://www.w3.org/2000/svg">
<path fill-rule="evenodd" clip-rule="evenodd" d="M4.5 2C3.67157 2 3 2.67157 3 3.5V12.5C3 13.3284 3.67157 14 4.5 14H5.99981C5.99977 13.9946 5.99976 13.9893 5.99976 13.9839V13H4.5C4.22386 13 4 12.7761 4 12.5V3.5C4 3.22386 4.22386 3 4.5 3H9V5.5V6H9.5H12V9.37844L12.0135 9.36495C12.2951 9.08335 12.6356 8.88566 13 8.77756V5.70711C13 5.44189 12.8946 5.18754 12.7071 5L10 2.29289C9.81246 2.10536 9.55811 2 9.29289 2H4.5ZM10 5V3.70711L11.2929 5H10Z" fill="#999E9E"/>
<path d="M9.5 11L8.92561 10.4256C8.67144 10.1714 8.28314 10.1084 7.96164 10.2692V10.2692C7.67871 10.4106 7.5 10.6998 7.5 11.0161V13.9839C7.5 14.3002 7.67871 14.5894 7.96164 14.7308V14.7308C8.28314 14.8916 8.67144 14.8286 8.92561 14.5744L13.0744 10.4256C13.3286 10.1714 13.7169 10.1084 14.0384 10.2692V10.2692C14.3213 10.4106 14.5 10.6998 14.5 11.0161V13.9839C14.5 14.3002 14.3213 14.5894 14.0384 14.7308V14.7308C13.7169 14.8916 13.3286 14.8286 13.0744 14.5744L12.5 14" stroke="#00ACE9" stroke-linecap="round" stroke-linejoin="round"/>
</svg>
