<svg width="16" height="16" viewBox="0 0 16 16" fill="none" xmlns="http://www.w3.org/2000/svg">
<path fill-rule="evenodd" clip-rule="evenodd" d="M10 5V3.70711L11.2929 5H10ZM9.52634 2.02763C9.40867 1.99938 9.2891 1.9997 9.19415 1.99995L9.16863 2H5.1H5.08073C4.81715 1.99999 4.58977 1.99998 4.40249 2.01528C4.20481 2.03144 4.0082 2.06709 3.81901 2.16349C3.53677 2.3073 3.3073 2.53677 3.16349 2.81901C3.06709 3.0082 3.03144 3.20481 3.01528 3.40249C2.99998 3.58977 2.99999 3.81715 3 4.08073V4.1V11.9V11.9193C2.99999 12.1828 2.99998 12.4102 3.01528 12.5975C3.03144 12.7952 3.06709 12.9918 3.16349 13.181C3.3073 13.4632 3.53677 13.6927 3.81901 13.8365C4.0082 13.9329 4.20481 13.9686 4.40249 13.9847C4.58977 14 4.81715 14 5.08072 14H5.1H5.99981C5.99977 13.9946 5.99976 13.9893 5.99976 13.9839V13H5.1C4.81172 13 4.62559 12.9996 4.48392 12.988C4.34809 12.9769 4.29773 12.9581 4.273 12.9455C4.17892 12.8976 4.10243 12.8211 4.0545 12.727C4.0419 12.7023 4.02306 12.6519 4.01196 12.5161C4.00039 12.3744 4 12.1883 4 11.9V4.1C4 3.81172 4.00039 3.62559 4.01196 3.48392C4.02306 3.34809 4.0419 3.29773 4.0545 3.273C4.10243 3.17892 4.17892 3.10243 4.273 3.0545C4.29773 3.0419 4.34809 3.02306 4.48392 3.01196C4.62559 3.00039 4.81172 3 5.1 3H9V5.5C9 5.77614 9.22386 6 9.5 6H12V9.37844L12.0135 9.36495C12.2951 9.08335 12.6356 8.88566 13 8.77756V5.83137L13 5.80585C13.0003 5.7109 13.0006 5.59133 12.9724 5.47366C12.9479 5.37163 12.9075 5.27408 12.8526 5.18461C12.7894 5.08143 12.7046 4.99711 12.6373 4.93015L12.6373 4.93014L12.6192 4.91213L10.0879 2.38076L10.0699 2.36268C10.0029 2.29536 9.91857 2.21059 9.81539 2.14736C9.72592 2.09253 9.62837 2.05213 9.52634 2.02763Z" fill="#4E5254"/>
<path d="M9.5 11L8.92561 10.4256C8.67144 10.1714 8.28314 10.1084 7.96164 10.2692V10.2692C7.67871 10.4106 7.5 10.6998 7.5 11.0161V13.9839C7.5 14.3002 7.67871 14.5894 7.96164 14.7308V14.7308C8.28314 14.8916 8.67144 14.8286 8.92561 14.5744L13.0744 10.4256C13.3286 10.1714 13.7169 10.1084 14.0384 10.2692V10.2692C14.3213 10.4106 14.5 10.6998 14.5 11.0161V13.9839C14.5 14.3002 14.3213 14.5894 14.0384 14.7308V14.7308C13.7169 14.8916 13.3286 14.8286 13.0744 14.5744L12.5 14" stroke="#0082BC" stroke-linecap="round" stroke-linejoin="round"/>
</svg>
