<svg width="16" height="16" viewBox="0 0 16 16" fill="none" xmlns="http://www.w3.org/2000/svg">
<path fill-rule="evenodd" clip-rule="evenodd" d="M9.56066 3.14645C9.65443 3.05268 9.7816 3 9.91421 3H13.5C13.7761 3 14 3.22386 14 3.5V6H9.91421C9.7816 6 9.65443 5.94732 9.56066 5.85355L9.14645 5.43934C8.86514 5.15804 8.48361 5 8.08579 5H2V4.5C2 4.22386 2.22386 4 2.5 4H8.08579C8.48361 4 8.86514 3.84196 9.14645 3.56066L9.56066 3.14645ZM13.507 7H14V7.08576C14.0506 7.10367 14.1006 7.12443 14.1498 7.14804C14.6695 7.39782 15 7.92339 15 8.5V3.5C15 2.67157 14.3284 2 13.5 2H9.91421C9.51639 2 9.13486 2.15803 8.85355 2.43934L8.43934 2.85355C8.34557 2.94732 8.21839 3 8.08579 3H2.5C1.67157 3 1 3.67157 1 4.5V12.5C1 13.3284 1.67157 14 2.5 14H6.65586C6.44122 13.6992 6.2675 13.3646 6.1529 13H2.5C2.22386 13 2 12.7761 2 12.5V6H8.08579C8.21839 6 8.34557 6.05268 8.43934 6.14645L8.85355 6.56066C9.13486 6.84197 9.51639 7 9.91421 7H13.4935C13.498 6.99998 13.5025 6.99998 13.507 7Z" fill="#5B5F61"/>
<path d="M9.5 12.5V11.5M12.5 12.5V11.5M14.5 12C14.5 13.3807 12.933 14.5 11 14.5C9.067 14.5 7.5 13.3807 7.5 12C7.5 11.3188 7.88141 10.7013 8.5 10.2504V8.5L9.90576 9.62461C10.25 9.54375 10.6179 9.5 11 9.5C11.3821 9.5 11.75 9.54375 12.0942 9.62461L13.5 8.5V10.2504C14.1186 10.7013 14.5 11.3188 14.5 12Z" stroke="#AA589D" stroke-linecap="round" stroke-linejoin="round"/>
</svg>
