<svg width="16" height="16" viewBox="0 0 16 16" fill="none" xmlns="http://www.w3.org/2000/svg">
<path fill-rule="evenodd" clip-rule="evenodd" d="M9.56055 3.14645C9.65432 3.05268 9.78149 3 9.9141 3H13.4999C13.776 3 13.9999 3.22386 13.9999 3.5V7.08576C14.0505 7.10367 14.1005 7.12443 14.1497 7.14804C14.6694 7.39782 14.9999 7.92339 14.9999 8.5V3.5C14.9999 2.67157 14.3283 2 13.4999 2H9.9141C9.51628 2 9.13475 2.15803 8.85344 2.43934L8.43923 2.85355C8.34546 2.94732 8.21828 3 8.08568 3H3.49989C2.67146 3 1.99989 3.67157 1.99989 4.5V6H1.82562C0.829051 6 0.109556 6.95386 0.383334 7.91208L1.81191 12.9121C1.99589 13.556 2.58447 14 3.25419 14H6.65575C6.44111 13.6992 6.26739 13.3646 6.15279 13H3.25419C3.03095 13 2.83476 12.852 2.77343 12.6374L1.34486 7.63736C1.2536 7.31795 1.49343 7 1.82562 7H6.58568C6.71828 7 6.84546 7.05268 6.93923 7.14645L7.34073 7.54795C7.47687 7.38214 7.64938 7.24452 7.85011 7.14804C8.05467 7.04972 8.2743 7.00099 8.49289 7H8.4141C8.2815 7 8.15432 6.94732 8.06055 6.85355L7.64634 6.43934C7.36503 6.15804 6.9835 6 6.58568 6H2.99989V4.5C2.99989 4.22386 3.22375 4 3.49989 4H8.08568C8.4835 4 8.86503 3.84196 9.14634 3.56066L9.56055 3.14645ZM8.50643 7C8.83858 7.0015 9.16757 7.11321 9.43693 7.3287L10.2761 8H10.9964C10.9975 8 10.9987 8 10.9999 8C11.0011 8 11.0022 8 11.0034 8H11.7237L12.5628 7.3287C12.6555 7.2546 12.7551 7.19278 12.8595 7.14349C12.664 7.05106 12.4464 7 12.2191 7H8.50643Z" fill="#4E5254"/>
<path d="M9.5 12.5V11.5M12.5 12.5V11.5M14.5 12C14.5 13.3807 12.933 14.5 11 14.5C9.067 14.5 7.5 13.3807 7.5 12C7.5 11.3188 7.88141 10.7013 8.5 10.2504V8.5L9.90576 9.62461C10.25 9.54375 10.6179 9.5 11 9.5C11.3821 9.5 11.75 9.54375 12.0942 9.62461L13.5 8.5V10.2504C14.1186 10.7013 14.5 11.3188 14.5 12Z" stroke="#A8569B" stroke-linecap="round" stroke-linejoin="round"/>
</svg>
