<svg width="16" height="16" viewBox="0 0 16 16" fill="none" xmlns="http://www.w3.org/2000/svg">
<path d="M4.56787 4.05615H11.5127L11.6899 7.5083H11.2012C11.0866 6.86377 10.938 6.36068 10.7554 5.99902C10.5728 5.63737 10.3633 5.38135 10.127 5.23096C9.89421 5.07699 9.63818 5 9.35889 5C9.19775 5 9.07959 5.03402 9.00439 5.10205C8.9292 5.1665 8.8916 5.26139 8.8916 5.38672V10.5972C8.8916 10.7153 8.92741 10.812 8.99902 10.8872C9.07422 10.9624 9.16374 11 9.26758 11H10.1699V12H5.92139V11H6.78076C6.90967 11 7.01172 10.9642 7.08691 10.8926C7.16211 10.8174 7.19971 10.7189 7.19971 10.5972V5.41895C7.19971 5.27572 7.16032 5.17008 7.08154 5.10205C7.00635 5.03402 6.88639 5 6.72168 5C5.80859 5 5.19092 5.8361 4.86865 7.5083H4.396L4.56787 4.05615Z" fill="#4E5254"/>
</svg>
