<svg width="16" height="16" viewBox="0 0 16 16" fill="none" xmlns="http://www.w3.org/2000/svg">
<path fill-rule="evenodd" clip-rule="evenodd" d="M4.0545 2.273C4 2.37996 4 2.51997 4 2.8V4H2.8C2.51997 4 2.37996 4 2.273 4.0545C2.17892 4.10243 2.10243 4.17892 2.0545 4.273C2 4.37996 2 4.51997 2 4.8V6.2C2 6.48003 2 6.62004 2.0545 6.727C2.10243 6.82108 2.17892 6.89757 2.273 6.9455C2.37996 7 2.51997 7 2.8 7H4V8.2C4 8.48003 4 8.62004 4.0545 8.727C4.10243 8.82108 4.17892 8.89757 4.273 8.9455C4.37996 9 4.51997 9 4.8 9H6.2C6.48003 9 6.62004 9 6.727 8.9455C6.82108 8.89757 6.89757 8.82108 6.9455 8.727C7 8.62004 7 8.48003 7 8.2V7H8.2C8.48003 7 8.62004 7 8.727 6.9455C8.82108 6.89757 8.89757 6.82108 8.9455 6.727C9 6.62004 9 6.48003 9 6.2V4.8C9 4.51997 9 4.37996 8.9455 4.273C8.89757 4.17892 8.82108 4.10243 8.727 4.0545C8.62004 4 8.48003 4 8.2 4H7V2.8C7 2.51997 7 2.37996 6.9455 2.273C6.89757 2.17892 6.82108 2.10243 6.727 2.0545C6.62004 2 6.48003 2 6.2 2H4.8C4.51997 2 4.37996 2 4.273 2.0545C4.17892 2.10243 4.10243 2.17892 4.0545 2.273ZM3 6V5H5V3H6V5H8V6H6V8H5V6H3ZM9.0545 7.273C9 7.37996 9 7.51997 9 7.8V9H7.8C7.51997 9 7.37996 9 7.273 9.0545C7.17892 9.10243 7.10243 9.17892 7.0545 9.273C7 9.37996 7 9.51997 7 9.8V11.2C7 11.48 7 11.62 7.0545 11.727C7.10243 11.8211 7.17892 11.8976 7.273 11.9455C7.37996 12 7.51997 12 7.8 12H9V13.2C9 13.48 9 13.62 9.0545 13.727C9.10243 13.8211 9.17892 13.8976 9.273 13.9455C9.37996 14 9.51997 14 9.8 14H11.2C11.48 14 11.62 14 11.727 13.9455C11.8211 13.8976 11.8976 13.8211 11.9455 13.727C12 13.62 12 13.48 12 13.2V12H13.2C13.48 12 13.62 12 13.727 11.9455C13.8211 11.8976 13.8976 11.8211 13.9455 11.727C14 11.62 14 11.48 14 11.2V9.8C14 9.51997 14 9.37996 13.9455 9.273C13.8976 9.17892 13.8211 9.10243 13.727 9.0545C13.62 9 13.48 9 13.2 9H12V7.8C12 7.51997 12 7.37996 11.9455 7.273C11.8976 7.17892 11.8211 7.10243 11.727 7.0545C11.62 7 11.48 7 11.2 7H9.8C9.51997 7 9.37996 7 9.273 7.0545C9.17892 7.10243 9.10243 7.17892 9.0545 7.273ZM8 11V10H10V8H11V10H13V11H11V13H10V11H8Z" fill="#7867BA"/>
</svg>
