<svg width="16" height="16" viewBox="0 0 16 16" fill="none" xmlns="http://www.w3.org/2000/svg">
<path d="M5.89015 12V4.322H7.12215V10.966H10.6201V12H5.89015Z" fill="#A8569B"/>
<path d="M2.0251 5.216C2.01724 4.9942 2.05432 4.7731 2.1341 4.566C2.19923 4.40474 2.30968 4.26581 2.4521 4.166C2.6018 4.06758 2.77039 4.00151 2.9471 3.972C3.16004 3.9348 3.37594 3.91706 3.5921 3.919H4.0101V4.819H3.5741C3.49291 4.80696 3.40998 4.81835 3.33504 4.85183C3.26011 4.88531 3.1963 4.93949 3.1511 5.008C3.08024 5.15285 3.04591 5.31283 3.0511 5.474V6.974C3.05542 7.18806 3.01841 7.40095 2.9421 7.601C2.8968 7.69632 2.83114 7.78055 2.74976 7.84776C2.66839 7.91497 2.57327 7.96352 2.4711 7.99C2.56563 8.0148 2.65424 8.05828 2.7317 8.11788C2.80916 8.17748 2.87389 8.25198 2.9221 8.337C3.00979 8.50545 3.05413 8.69311 3.0511 8.883V10.508C3.04579 10.6689 3.08013 10.8285 3.1511 10.973C3.19617 11.0417 3.25993 11.0961 3.33487 11.1297C3.40981 11.1634 3.49281 11.1749 3.5741 11.163H4.0101V12.063H3.5921C3.37599 12.0647 3.16014 12.0473 2.9471 12.011C2.77033 11.9812 2.60173 11.9147 2.4521 11.816C2.3094 11.7165 2.19888 11.5775 2.1341 11.416C2.05432 11.2089 2.01724 10.9878 2.0251 10.766V9.2C2.03755 9.00644 1.98931 8.81383 1.8871 8.649C1.82847 8.58114 1.75427 8.5285 1.67085 8.49558C1.58742 8.46267 1.49727 8.45046 1.4081 8.46H1.3501V7.547H1.4081C1.4961 7.55578 1.58494 7.5436 1.66733 7.51144C1.74972 7.47929 1.82332 7.42807 1.8821 7.362C1.98412 7.21591 2.03445 7.03994 2.0251 6.862V5.216Z" fill="#4E5254"/>
<path d="M13.987 6.86001C13.9774 7.03784 14.0273 7.2138 14.129 7.36001C14.1879 7.42617 14.2617 7.47742 14.3443 7.50958C14.4268 7.54173 14.5158 7.55387 14.604 7.54501H14.661V8.45801H14.604C14.5147 8.44839 14.4243 8.46056 14.3408 8.49347C14.2572 8.52639 14.1828 8.57907 14.124 8.64701C14.0226 8.81217 13.9748 9.00461 13.987 9.19801V10.785C13.9946 11.0069 13.9571 11.228 13.877 11.435C13.8122 11.5965 13.7017 11.7355 13.559 11.835C13.4077 11.9341 13.2374 12.0005 13.059 12.03C12.8472 12.0659 12.6328 12.0833 12.418 12.082H12V11.182H12.437C12.5183 11.1938 12.6012 11.1822 12.6762 11.1486C12.7511 11.1149 12.8148 11.0606 12.86 10.992C12.9305 10.8474 12.9648 10.6878 12.96 10.527V8.90201C12.9571 8.71226 13.0011 8.52472 13.088 8.35601C13.1367 8.27117 13.2017 8.19682 13.2793 8.13726C13.3568 8.0777 13.4455 8.03411 13.54 8.00901C13.4378 7.98286 13.3427 7.93441 13.2614 7.86716C13.1802 7.79991 13.1148 7.71551 13.07 7.62001C12.9929 7.42017 12.9555 7.20718 12.96 6.99301V5.49301C12.9647 5.33188 12.9304 5.17201 12.86 5.02701C12.8147 4.95859 12.7509 4.90448 12.676 4.87101C12.6011 4.83754 12.5182 4.82609 12.437 4.83801H12V3.93801H12.418C12.6328 3.93652 12.8473 3.95425 13.059 3.99101C13.2373 4.02022 13.4076 4.08629 13.559 4.18501C13.7014 4.28482 13.8119 4.42375 13.877 4.58501C13.9571 4.79203 13.9946 5.01314 13.987 5.23501V6.86001Z" fill="#4E5254"/>
</svg>
