<svg width="16" height="16" viewBox="0 0 16 16" fill="none" xmlns="http://www.w3.org/2000/svg">
<path fill-rule="evenodd" clip-rule="evenodd" d="M5 3.5C5 2.67157 5.67157 2 6.5 2H8.5C9.32843 2 10 2.67157 10 3.5V5.5C10 6.32843 9.32843 7 8.5 7H3.5C3.22386 7 3 7.22386 3 7.5V9.5C3 9.77614 3.22386 10 3.5 10H4.5C4.77614 10 5 10.2239 5 10.5C5 10.7761 4.77614 11 4.5 11H3.5C2.67157 11 2 10.3284 2 9.5V7.5C2 6.67157 2.67157 6 3.5 6H8.5C8.77614 6 9 5.77614 9 5.5V3.5C9 3.22386 8.77614 3 8.5 3H6.5C6.22386 3 6 3.22386 6 3.5V4.5C6 4.77614 5.77614 5 5.5 5C5.22386 5 5 4.77614 5 4.5V3.5Z" fill="#00ACE9"/>
<path fill-rule="evenodd" clip-rule="evenodd" d="M11 12.5C11 13.3284 10.3284 14 9.5 14L7.5 14C6.67157 14 6 13.3284 6 12.5L6 10.5C6 9.67157 6.67157 9 7.5 9L12.5 9C12.7761 9 13 8.77614 13 8.5L13 6.5C13 6.22386 12.7761 6 12.5 6L11.5 6C11.2239 6 11 5.77614 11 5.5C11 5.22386 11.2239 5 11.5 5L12.5 5C13.3284 5 14 5.67157 14 6.5L14 8.5C14 9.32843 13.3284 10 12.5 10L7.5 10C7.22386 10 7 10.2239 7 10.5L7 12.5C7 12.7761 7.22386 13 7.5 13L9.5 13C9.77614 13 10 12.7761 10 12.5L10 11.5C10 11.2239 10.2239 11 10.5 11C10.7761 11 11 11.2239 11 11.5L11 12.5Z" fill="#B49C43"/>
</svg>
