<svg width="16" height="16" viewBox="0 0 16 16" fill="none" xmlns="http://www.w3.org/2000/svg">
<path d="M9.5 3V5.5H12M5.1 13.5H10.9C11.4601 13.5 11.7401 13.5 11.954 13.391C12.1422 13.2951 12.2951 13.1422 12.391 12.954C12.5 12.7401 12.5 12.4601 12.5 11.9V5.83137C12.5 5.70908 12.5 5.64793 12.4862 5.59038C12.4739 5.53937 12.4537 5.49059 12.4263 5.44586C12.3954 5.3954 12.3522 5.35216 12.2657 5.26569L9.73431 2.73431C9.64784 2.64784 9.6046 2.6046 9.55414 2.57368C9.50941 2.54627 9.46063 2.52606 9.40962 2.51382C9.35207 2.5 9.29092 2.5 9.16863 2.5H5.1C4.53995 2.5 4.25992 2.5 4.04601 2.60899C3.85785 2.70487 3.70487 2.85785 3.60899 3.04601C3.5 3.25992 3.5 3.53995 3.5 4.1V11.9C3.5 12.4601 3.5 12.7401 3.60899 12.954C3.70487 13.1422 3.85785 13.2951 4.04601 13.391C4.25992 13.5 4.53995 13.5 5.1 13.5Z" stroke="#9A9EA0" stroke-linejoin="round"/>
<path d="M7.5 4.5H5.5C5.22386 4.5 5 4.72386 5 5C5 5.27614 5.22386 5.5 5.5 5.5H7.5C7.77614 5.5 8 5.27614 8 5C8 4.72386 7.77614 4.5 7.5 4.5Z" fill="#9A9EA0"/>
<path d="M6.5 6.5H5.5C5.22386 6.5 5 6.72386 5 7C5 7.27614 5.22386 7.5 5.5 7.5H6.5C6.77614 7.5 7 7.27614 7 7C7 6.72386 6.77614 6.5 6.5 6.5Z" fill="#9A9EA0"/>
<path d="M10.5 8.5H5.5C5.22386 8.5 5 8.72386 5 9C5 9.27614 5.22386 9.5 5.5 9.5H10.5C10.7761 9.5 11 9.27614 11 9C11 8.72386 10.7761 8.5 10.5 8.5Z" fill="#9A9EA0"/>
<path d="M9.5 10.5H5.5C5.22386 10.5 5 10.7239 5 11C5 11.2761 5.22386 11.5 5.5 11.5H9.5C9.77614 11.5 10 11.2761 10 11C10 10.7239 9.77614 10.5 9.5 10.5Z" fill="#9A9EA0"/>
</svg>
