<svg width="16" height="16" viewBox="0 0 16 16" fill="none" xmlns="http://www.w3.org/2000/svg">
<path d="M9.5 3V5.5H12M5.1 13.5H10.9C11.4601 13.5 11.7401 13.5 11.954 13.391C12.1422 13.2951 12.2951 13.1422 12.391 12.954C12.5 12.7401 12.5 12.4601 12.5 11.9V5.83137C12.5 5.70908 12.5 5.64793 12.4862 5.59038C12.4739 5.53937 12.4537 5.49059 12.4263 5.44586C12.3954 5.3954 12.3522 5.35216 12.2657 5.26569L9.73431 2.73431C9.64784 2.64784 9.6046 2.6046 9.55414 2.57368C9.50941 2.54627 9.46063 2.52606 9.40962 2.51382C9.35207 2.5 9.29092 2.5 9.16863 2.5H5.1C4.53995 2.5 4.25992 2.5 4.04601 2.60899C3.85785 2.70487 3.70487 2.85785 3.60899 3.04601C3.5 3.25992 3.5 3.53995 3.5 4.1V11.9C3.5 12.4601 3.5 12.7401 3.60899 12.954C3.70487 13.1422 3.85785 13.2951 4.04601 13.391C4.25992 13.5 4.53995 13.5 5.1 13.5Z" stroke="#9A9EA0" stroke-linejoin="round"/>
<path fill-rule="evenodd" clip-rule="evenodd" d="M5.47681 9L7.99976 6.47704L10.5227 9L7.99976 11.523L5.47681 9ZM6.52332 9L7.99976 10.4764L9.4762 9L7.99976 7.52356L6.52332 9Z" fill="#00ACE9"/>
</svg>
